Sports fanatic Anastacio da Silva goes to Porto with his wife and two children to see a championship match. They stay in the home of the wealthy Barata family, whom they met while on vacation. The Baratas believe that Anastacio and his family are also from the upper class, a situation which is complicated when the Barata's son Eduardo falls in love with Anastacio's daughter Juju. The two decide to marry in Lisbon, forcing Anastacio to maintain the charade, at no small financial expense.


"Having explored the contrast of classes - O Costa do Castelo (1943) - and the cult of the microphone - A Menina da Rádio (1944) -, Arthur Duarte addressed, in his third comedy of success, which converge on the same authors, technical and artists, the phenomenon of football: that is The Lion of the Star - recreating the classic rivalry between Sporting Clube de Portugal and Futebol Clube do Porto, although the motivations of the film irradiated, so subtle, in the traditional sociological contrast between North and South

Areas where little fanciful highlights the trend of the clan Lisbon - particularly a hilarious, by the contrivance of situations and the whims of fate. The values of nobility and the rich display of gifts is beyond appearances, private or cosmopolitan, of virtue and vice scintillator between obscure rules. For this, nothing better than two sensational players - the histrionic Antonio Silva, the screaming Erico Braga. The filmic version - a commercial success in debut - removed the satirical aspects of the original piece of theater. "Instituto Camões

   General
      Complete name : O Leao da estrela.avi
      Format : AVI
      Format/Info : Audio Video Interleave
      File size : 1.35 GiB
      Duration : 1h 51mn
      Overall bit rate : 1 730 Kbps
      Writing application : FairUse Wizard - http://fairusewizard.com
      Writing library : The best and REALLY easy backup tool
   Video #0
      ID : 0
      Format : MPEG-4 Visual
      Format profile : AdvancedSimple@L5
      Format settings, BVOP : Yes
      Format settings, QPel : No
      Format settings, GMC : No warppoints
      Format settings, Matrix : Default (MPEG)
      Muxing mode : Packed bitstream
      Codec ID : XVID
      Codec ID/Hint : XviD
      Duration : 1h 51mn
      Bit rate : 1 528 Kbps
      Width : 624 pixels
      Height : 448 pixels
      Display aspect ratio : 1.393
      Frame rate : 25.000 fps
      Resolution : 24 bits
      Colorimetry : 4:2:0
      Scan type : Progressive
      Bits/(Pixel*Frame) : 0.219
      Stream size : 1.19 GiB (88%)
      Writing library : XviD 1.2.1 (UTC 2008-12-04)
   Audio #1
      ID : 1
      Format : AC-3
      Format/Info : Audio Coding 3
      Codec ID : 2000
      Duration : 1h 51mn
      Bit rate mode : Constant
      Bit rate : 192 Kbps
      Channel(s) : 2 channels
      Channel positions : L R
      Sampling rate : 48.0 KHz
      Stream size : 153 MiB (11%)
      Alignment : Split accross interleaves
      Interleave, duration : 40 ms (1.00 video frame)
      Interleave, preload duration : 500 ms
 
http://www.imdb.com/title/tt0039563/

Portuguese audio: English, French, Spanish and Portuguese subpack

Arthur Duarte - O Leao da Estrela [The Lion of The Star] (1947)